#!OML:ASF H:\Dans Jumps\Project 1\Capture day 1\Session 1\subject.ASF
:FULLY-SPECIFIED
:DEGREES
510
root 0.370294 17.7336 -2.63572 6.45542 -0.580528 -1.22191
lowerback -0.85388 -0.0545801 -0.0447693
upperback 4.06657 -0.123135 1.2696
thorax 4.67416 -0.0901078 1.33012
lowerneck -11.814 0.35477 -2.10915
upperneck 36.3952 0.599302 1.39367
head 14.4752 0.154047 1.04046
rclavicle 2.68359e-015 -1.78906e-015
rhumerus -21.8188 -13.666 -83.2002
rradius 24.097
rwrist 32.1823
rhand -18.679 -25.7798
rfingers 7.12502
rthumb 7.615 -55.6227
lclavicle 2.68359e-015 -1.78906e-015
lhumerus -19.363 -1.35925 88.6708
lradius 18.2785
lwrist 4.17995
lhand -25.9447 -4.30875
lfingers 7.12502
lthumb 0.599127 25.6701
rfemur -16.015 -0.654254 18.7379
rtibia 23.2513
rfoot -12.385 0.628067
rtoes 14.3285
lfemur -14.3487 6.55146 -17.4764
ltibia 20.2752
lfoot -9.03859 5.55985
ltoes 2.61704
511
root 0.370909 17.7336 -2.63599 6.45147 -0.575181 -1.22543
lowerback -0.856952 -0.0569701 -0.0385284
upperback 4.06902 -0.126638 1.27094
thorax 4.67855 -0.0916632 1.32785
lowerneck -11.8059 0.355668 -2.11416
upperneck 36.3882 0.602617 1.39159
head 14.4699 0.154565 1.04085
rclavicle 1.63997e-015 3.77691e-015
rhumerus -21.8234 -13.6993 -83.1876
rradius 24.0942
rwrist 32.2025
rhand -18.7174 -25.7894
rfingers 7.12502
rthumb 7.57795 -55.6337
lclavicle 1.63997e-015 3.77691e-015
lhumerus -19.3828 -1.31632 88.6684
lradius 18.2734
lwrist 4.14345
lhand -25.9505 -4.34722
lfingers 7.12502
lthumb 0.593559 25.6317
rfemur -16.0089 -0.655702 18.7398
rtibia 23.2463
rfoot -12.3834 0.622418
rtoes 14.3134
lfemur -14.347 6.55406 -17.4745
ltibia 20.2762
lfoot -9.0387 5.55169
ltoes 2.62419
512
root 0.371508 17.7335 -2.6363 6.44832 -0.56976 -1.23038
lowerback -0.858925 -0.0592223 -0.0316101
upperback 4.07128 -0.129992 1.27284
thorax 4.68211 -0.0931272 1.32577
lowerneck -11.8027 0.356943 -2.11608
upperneck 36.3849 0.606525 1.3874
head 14.4676 0.155445 1.04
rclavicle 1.04362e-015 4.17448e-015
rhumerus -21.8262 -13.7337 -83.1754
rradius 24.087
rwrist 32.2229
rhand -18.7381 -25.8226
rfingers 7.12502
rthumb 7.55792 -55.6676
lclavicle 1.04362e-015 4.17448e-015
lhumerus -19.4018 -1.27458 88.6654
lradius 18.2661
lwrist 4.10344
lhand -25.9598 -4.38601
lfingers 7.12502
lthumb 0.58458 25.5929
rfemur -16.0041 -0.655704 18.7432
rtibia 23.242
rfoot -12.3817 0.616417
rtoes 14.3102
lfemur -14.3472 6.55531 -17.4712
ltibia 20.2784
lfoot -9.03906 5.5463
ltoes 2.62589
513
root 0.372124 17.7334 -2.63657 6.44415 -0.562925 -1.23285
lowerback -0.860027 -0.0619522 -0.0265811
upperback 4.07314 -0.133874 1.27381
thorax 4.68476 -0.0949003 1.32378
lowerneck -11.8014 0.358453 -2.11469
upperneck 36.3862 0.610408 1.38183
head 14.4678 0.156543 1.03807
rclavicle -1.63997e-015 1.78906e-014
rhumerus -21.8316 -13.7682 -83.1632
rradius 24.0793
rwrist 32.2459
rhand -18.743 -25.8652
rfingers 7.12502
rthumb 7.55325 -55.7103
lclavicle -1.63997e-015 1.78906e-014
lhumerus -19.4193 -1.23888 88.6627
lradius 18.2527
lwrist 4.06716
lhand -25.9738 -4.43149
lfingers 7.12502
lthumb 0.571044 25.5475
rfemur -15.9979 -0.658325 18.7437
rtibia 23.2382
rfoot -12.381 0.611573
rtoes 14.3034
lfemur -14.3463 6.55431 -17.4707
ltibia 20.2806
lfoot -9.0392 5.54332
ltoes 2.61621
514
root 0.372704 17.7333 -2.63686 6.44103 -0.556021 -1.236
lowerback -0.86099 -0.0648398 -0.0218452
upperback 4.07392 -0.137961 1.27524
thorax 4.68621 -0.0967893 1.3224
lowerneck -11.8019 0.360378 -2.11319
upperneck 36.3919 0.614427 1.3776
head 14.4706 0.157849 1.03676
rclavicle 1.2921e-015 1.07344e-014
rhumerus -21.837 -13.8031 -83.1515
rradius 24.0677
rwrist 32.2681
rhand -18.7348 -25.9218
rfingers 7.12502
rthumb 7.56115 -55.7666
lclavicle 1.2921e-015 1.07344e-014
lhumerus -19.4365 -1.20114 88.6588
lradius 18.2353
lwrist 4.02658
lhand -25.9889 -4.49112
lfingers 7.12502
lthumb 0.556479 25.4879
rfemur -15.9932 -0.658725 18.7449
rtibia 23.2349
rfoot -12.3795 0.604588
rtoes 14.2962
lfemur -14.3468 6.55246 -17.4692
ltibia 20.2827
lfoot -9.0394 5.54084
ltoes 2.60837
515
root 0.373269 17.7333 -2.63715 6.43919 -0.548764 -1.23719
lowerback -0.862682 -0.0675468 -0.0192119
upperback 4.07405 -0.141708 1.27601
thorax 4.68739 -0.0985713 1.32153
lowerneck -11.8026 0.361509 -2.10994
upperneck 36.3989 0.616833 1.37322
head 14.474 0.158675 1.03485
rclavicle -1.14301e-015 -2.38542e-015
rhumerus -21.8444 -13.838 -83.1397
rradius 24.0571
rwrist 32.294
rhand -18.7264 -25.9645
rfingers 7.12502
rthumb 7.56922 -55.809
lclavicle -1.14301e-015 -2.38542e-015
lhumerus -19.4514 -1.1673 88.6547
lradius 18.214
lwrist 3.98914
lhand -25.9911 -4.52685
lfingers 7.12502
lthumb 0.554358 25.4522
rfemur -15.9897 -0.658944 18.7441
rtibia 23.2316
rfoot -12.3776 0.597084
rtoes 14.2869
lfemur -14.3488 6.55196 -17.47
ltibia 20.285
lfoot -9.04177 5.53607
ltoes 2.60596
516
root 0.373839 17.7333 -2.63732 6.43806 -0.544033 -1.23757
lowerback -0.865952 -0.0697224 -0.0185965
upperback 4.07405 -0.144704 1.27714
thorax 4.68933 -0.100067 1.32222
lowerneck -11.8035 0.362547 -2.10605
upperneck 36.4079 0.619161 1.36814
head 14.4785 0.159441 1.03255
rclavicle 2.13694e-015 -5.96354e-016
rhumerus -21.8518 -13.8702 -83.1276
rradius 24.0446
rwrist 32.322
rhand -18.7232 -25.9913
rfingers 7.12502
rthumb 7.57236 -55.8357
lclavicle 2.13694e-015 -5.96354e-016
lhumerus -19.4647 -1.13393 88.651
lradius 18.19
lwrist 3.9563
lhand -25.9881 -4.55903
lfingers 7.12502
lthumb 0.557208 25.42
rfemur -15.9869 -0.658399 18.7423
rtibia 23.2281
rfoot -12.3758 0.589561
rtoes 14.2689
lfemur -14.3507 6.55214 -17.4719
ltibia 20.2875
lfoot -9.04491 5.53358
ltoes 2.6026
517
root 0.37442 17.7333 -2.63745 6.43832 -0.541446 -1.24153
lowerback -0.871848 -0.0708833 -0.0144517
upperback 4.07507 -0.14654 1.27943
thorax 4.69379 -0.100889 1.32218
lowerneck -11.8034 0.363239 -2.10188
upperneck 36.414 0.621399 1.36163
head 14.4813 0.160046 1.02956
rclavicle 1.73937e-015 3.37934e-015
rhumerus -21.8568 -13.9001 -83.1159
rradius 24.0311
rwrist 32.3471
rhand -18.7296 -26.0055
rfingers 7.12502
rthumb 7.56618 -55.8502
lclavicle 1.73937e-015 3.37934e-015
lhumerus -19.4738 -1.10191 88.6478
lradius 18.1664
lwrist 3.92959
lhand -25.9846 -4.57802
lfingers 7.12502
lthumb 0.560585 25.401
rfemur -15.9855 -0.655249 18.7444
rtibia 23.2242
rfoot -12.3736 0.582327
rtoes 14.252
lfemur -14.3535 6.55337 -17.47
ltibia 20.29
lfoot -9.04867 5.53169
ltoes 2.60201
